<?xml version="1.0" encoding="UTF-8" standalone="no"?>
<!DOCTYPE svg PUBLIC "-//W3C//DTD SVG 1.1//EN"
 "http://www.w3.org/Graphics/SVG/1.1/DTD/svg11.dtd">
<!-- Generated by graphviz version 2.40.1 (20161225.0304)
 -->
<!-- Title: models_diagram Pages: 1 -->
<svg width="986pt" height="408pt"
 viewBox="0.00 0.00 986.00 408.00" xmlns="http://www.w3.org/2000/svg" xmlns:xlink="http://www.w3.org/1999/xlink">
<g id="graph0" class="graph" transform="scale(1 1) rotate(0) translate(4 404)">
<title>models_diagram</title>
<polygon fill="transparent" stroke="transparent" points="-4,4 -4,-404 982,-404 982,4 -4,4"/>
<!-- _diagram_info -->
<g id="node1" class="node">
<title>_diagram_info</title>
<text text-anchor="start" x="8" y="-296.1" font-family="Times,serif" font-size="13.00" fill="#000000">Models diagram</text>
<text text-anchor="start" x="8" y="-282.1" font-family="Times,serif" font-size="13.00" fill="#000000">Date: Aug 25 2018 &#45; 14:58</text>
<text text-anchor="start" x="8" y="-268.1" font-family="Times,serif" font-size="13.00" fill="#000000">Migration version: 20180825125327</text>
<text text-anchor="start" x="8" y="-254.1" font-family="Times,serif" font-size="13.00" fill="#000000">Generated by RailRoady 1.5.3</text>
<text text-anchor="start" x="8" y="-240.1" font-family="Times,serif" font-size="13.00" fill="#000000">http://railroady.prestonlee.com</text>
</g>
<!-- Player -->
<g id="node2" class="node">
<title>Player</title>
<path fill="none" stroke="#000000" d="M244,-196C244,-196 352,-196 352,-196 358,-196 364,-202 364,-208 364,-208 364,-335 364,-335 364,-341 358,-347 352,-347 352,-347 244,-347 244,-347 238,-347 232,-341 232,-335 232,-335 232,-208 232,-208 232,-202 238,-196 244,-196"/>
<text text-anchor="middle" x="298" y="-331.8" font-family="Times,serif" font-size="14.00" fill="#000000">Player</text>
<polyline fill="none" stroke="#000000" points="232,-324 364,-324 "/>
<text text-anchor="start" x="240" y="-308.8" font-family="Times,serif" font-size="14.00" fill="#000000">id :integer</text>
<text text-anchor="start" x="240" y="-293.8" font-family="Times,serif" font-size="14.00" fill="#000000">name :varchar</text>
<text text-anchor="start" x="240" y="-278.8" font-family="Times,serif" font-size="14.00" fill="#000000">organization :varchar</text>
<text text-anchor="start" x="240" y="-263.8" font-family="Times,serif" font-size="14.00" fill="#000000">user_id :integer</text>
<text text-anchor="start" x="240" y="-248.8" font-family="Times,serif" font-size="14.00" fill="#000000">age :integer</text>
<text text-anchor="start" x="240" y="-233.8" font-family="Times,serif" font-size="14.00" fill="#000000">arrived :boolean</text>
<text text-anchor="start" x="240" y="-218.8" font-family="Times,serif" font-size="14.00" fill="#000000">created_at :datetime</text>
<text text-anchor="start" x="240" y="-203.8" font-family="Times,serif" font-size="14.00" fill="#000000">updated_at :datetime</text>
</g>
<!-- Team -->
<g id="node7" class="node">
<title>Team</title>
<path fill="none" stroke="#000000" d="M244.5,-.5C244.5,-.5 351.5,-.5 351.5,-.5 357.5,-.5 363.5,-6.5 363.5,-12.5 363.5,-12.5 363.5,-94.5 363.5,-94.5 363.5,-100.5 357.5,-106.5 351.5,-106.5 351.5,-106.5 244.5,-106.5 244.5,-106.5 238.5,-106.5 232.5,-100.5 232.5,-94.5 232.5,-94.5 232.5,-12.5 232.5,-12.5 232.5,-6.5 238.5,-.5 244.5,-.5"/>
<text text-anchor="middle" x="298" y="-91.3" font-family="Times,serif" font-size="14.00" fill="#000000">Team</text>
<polyline fill="none" stroke="#000000" points="232.5,-83.5 363.5,-83.5 "/>
<text text-anchor="start" x="240.5" y="-68.3" font-family="Times,serif" font-size="14.00" fill="#000000">id :integer</text>
<text text-anchor="start" x="240.5" y="-53.3" font-family="Times,serif" font-size="14.00" fill="#000000">name :varchar</text>
<text text-anchor="start" x="240.5" y="-38.3" font-family="Times,serif" font-size="14.00" fill="#000000">created_at :datetime</text>
<text text-anchor="start" x="240.5" y="-23.3" font-family="Times,serif" font-size="14.00" fill="#000000">updated_at :datetime</text>
<text text-anchor="start" x="240.5" y="-8.3" font-family="Times,serif" font-size="14.00" fill="#000000">group_id :integer</text>
</g>
<!-- Player&#45;&gt;Team -->
<g id="edge1" class="edge">
<title>Player&#45;&gt;Team</title>
<path fill="none" stroke="#b8c18d" d="M298,-185.7538C298,-162.7298 298,-138.2538 298,-116.6988"/>
<polygon fill="#b8c18d" stroke="#b8c18d" points="298.0001,-185.866 293.5,-195.8659 298,-190.866 298,-195.866 298,-195.866 298,-195.866 298,-190.866 302.5,-195.866 298.0001,-185.866 298.0001,-185.866"/>
<polygon fill="#b8c18d" stroke="#b8c18d" points="298.0001,-116.6948 302.5,-106.6948 298,-111.6948 298,-106.6948 298,-106.6948 298,-106.6948 298,-111.6948 293.5,-106.6949 298.0001,-116.6948 298.0001,-116.6948"/>
</g>
<!-- Group -->
<g id="node3" class="node">
<title>Group</title>
<path fill="none" stroke="#000000" d="M394.5,-218.5C394.5,-218.5 501.5,-218.5 501.5,-218.5 507.5,-218.5 513.5,-224.5 513.5,-230.5 513.5,-230.5 513.5,-312.5 513.5,-312.5 513.5,-318.5 507.5,-324.5 501.5,-324.5 501.5,-324.5 394.5,-324.5 394.5,-324.5 388.5,-324.5 382.5,-318.5 382.5,-312.5 382.5,-312.5 382.5,-230.5 382.5,-230.5 382.5,-224.5 388.5,-218.5 394.5,-218.5"/>
<text text-anchor="middle" x="448" y="-309.3" font-family="Times,serif" font-size="14.00" fill="#000000">Group</text>
<polyline fill="none" stroke="#000000" points="382.5,-301.5 513.5,-301.5 "/>
<text text-anchor="start" x="390.5" y="-286.3" font-family="Times,serif" font-size="14.00" fill="#000000">id :integer</text>
<text text-anchor="start" x="390.5" y="-271.3" font-family="Times,serif" font-size="14.00" fill="#000000">name :varchar</text>
<text text-anchor="start" x="390.5" y="-256.3" font-family="Times,serif" font-size="14.00" fill="#000000">short :varchar</text>
<text text-anchor="start" x="390.5" y="-241.3" font-family="Times,serif" font-size="14.00" fill="#000000">created_at :datetime</text>
<text text-anchor="start" x="390.5" y="-226.3" font-family="Times,serif" font-size="14.00" fill="#000000">updated_at :datetime</text>
</g>
<!-- ApplicationRecord -->
<g id="node4" class="node">
<title>ApplicationRecord</title>
<ellipse fill="none" stroke="#000000" cx="609" cy="-271.5" rx="77.1866" ry="18"/>
<text text-anchor="middle" x="609" y="-267.8" font-family="Times,serif" font-size="14.00" fill="#000000">ApplicationRecord</text>
</g>
<!-- Ability -->
<g id="node5" class="node">
<title>Ability</title>
<polygon fill="none" stroke="#000000" points="704.5,-248.5 704.5,-294.5 759.5,-294.5 759.5,-248.5 704.5,-248.5"/>
<text text-anchor="middle" x="732" y="-279.3" font-family="Times,serif" font-size="14.00" fill="#000000">Ability</text>
<polyline fill="none" stroke="#000000" points="704.5,-271.5 759.5,-271.5 "/>
<text text-anchor="middle" x="732" y="-256.3" font-family="Times,serif" font-size="14.00" fill="#000000"> </text>
</g>
<!-- User -->
<g id="node6" class="node">
<title>User</title>
<path fill="none" stroke="#000000" d="M790,-143.5C790,-143.5 966,-143.5 966,-143.5 972,-143.5 978,-149.5 978,-155.5 978,-155.5 978,-387.5 978,-387.5 978,-393.5 972,-399.5 966,-399.5 966,-399.5 790,-399.5 790,-399.5 784,-399.5 778,-393.5 778,-387.5 778,-387.5 778,-155.5 778,-155.5 778,-149.5 784,-143.5 790,-143.5"/>
<text text-anchor="middle" x="878" y="-384.3" font-family="Times,serif" font-size="14.00" fill="#000000">User</text>
<polyline fill="none" stroke="#000000" points="778,-376.5 978,-376.5 "/>
<text text-anchor="start" x="786" y="-361.3" font-family="Times,serif" font-size="14.00" fill="#000000">id :integer</text>
<text text-anchor="start" x="786" y="-346.3" font-family="Times,serif" font-size="14.00" fill="#000000">email :varchar</text>
<text text-anchor="start" x="786" y="-331.3" font-family="Times,serif" font-size="14.00" fill="#000000">encrypted_password :varchar</text>
<text text-anchor="start" x="786" y="-316.3" font-family="Times,serif" font-size="14.00" fill="#000000">reset_password_token :varchar</text>
<text text-anchor="start" x="786" y="-301.3" font-family="Times,serif" font-size="14.00" fill="#000000">reset_password_sent_at :datetime</text>
<text text-anchor="start" x="786" y="-286.3" font-family="Times,serif" font-size="14.00" fill="#000000">remember_created_at :datetime</text>
<text text-anchor="start" x="786" y="-271.3" font-family="Times,serif" font-size="14.00" fill="#000000">confirmation_token :varchar</text>
<text text-anchor="start" x="786" y="-256.3" font-family="Times,serif" font-size="14.00" fill="#000000">confirmed_at :datetime</text>
<text text-anchor="start" x="786" y="-241.3" font-family="Times,serif" font-size="14.00" fill="#000000">confirmation_sent_at :datetime</text>
<text text-anchor="start" x="786" y="-226.3" font-family="Times,serif" font-size="14.00" fill="#000000">unconfirmed_email :varchar</text>
<text text-anchor="start" x="786" y="-211.3" font-family="Times,serif" font-size="14.00" fill="#000000">failed_attempts :integer</text>
<text text-anchor="start" x="786" y="-196.3" font-family="Times,serif" font-size="14.00" fill="#000000">unlock_token :varchar</text>
<text text-anchor="start" x="786" y="-181.3" font-family="Times,serif" font-size="14.00" fill="#000000">locked_at :datetime</text>
<text text-anchor="start" x="786" y="-166.3" font-family="Times,serif" font-size="14.00" fill="#000000">created_at :datetime</text>
<text text-anchor="start" x="786" y="-151.3" font-family="Times,serif" font-size="14.00" fill="#000000">updated_at :datetime</text>
</g>
</g>
</svg>
