<?xml version="1.0" encoding="UTF-8" standalone="no"?>
<!DOCTYPE svg PUBLIC "-//W3C//DTD SVG 1.1//EN"
 "http://www.w3.org/Graphics/SVG/1.1/DTD/svg11.dtd">
<!-- Generated by graphviz version 2.40.1 (20161225.0304)
 -->
<!-- Title: models_diagram Pages: 1 -->
<svg width="708pt" height="158pt"
 viewBox="0.00 0.00 708.30 158.00" xmlns="http://www.w3.org/2000/svg" xmlns:xlink="http://www.w3.org/1999/xlink">
<g id="graph0" class="graph" transform="scale(1 1) rotate(0) translate(4 154)">
<title>models_diagram</title>
<polygon fill="transparent" stroke="transparent" points="-4,4 -4,-154 704.2976,-154 704.2976,4 -4,4"/>
<!-- _diagram_info -->
<g id="node1" class="node">
<title>_diagram_info</title>
<text text-anchor="start" x="8" y="-135.6" font-family="Times,serif" font-size="13.00" fill="#000000">Models diagram</text>
<text text-anchor="start" x="8" y="-121.6" font-family="Times,serif" font-size="13.00" fill="#000000">Date: Aug 25 2018 &#45; 14:58</text>
<text text-anchor="start" x="8" y="-107.6" font-family="Times,serif" font-size="13.00" fill="#000000">Migration version: 20180825125327</text>
<text text-anchor="start" x="8" y="-93.6" font-family="Times,serif" font-size="13.00" fill="#000000">Generated by RailRoady 1.5.3</text>
<text text-anchor="start" x="8" y="-79.6" font-family="Times,serif" font-size="13.00" fill="#000000">http://railroady.prestonlee.com</text>
</g>
<!-- Player -->
<g id="node2" class="node">
<title>Player</title>
<ellipse fill="none" stroke="#000000" cx="265" cy="-111" rx="33.2948" ry="18"/>
<text text-anchor="middle" x="265" y="-107.3" font-family="Times,serif" font-size="14.00" fill="#000000">Player</text>
</g>
<!-- Team -->
<g id="node7" class="node">
<title>Team</title>
<ellipse fill="none" stroke="#000000" cx="265" cy="-18" rx="31.3957" ry="18"/>
<text text-anchor="middle" x="265" y="-14.3" font-family="Times,serif" font-size="14.00" fill="#000000">Team</text>
</g>
<!-- Player&#45;&gt;Team -->
<g id="edge1" class="edge">
<title>Player&#45;&gt;Team</title>
<path fill="none" stroke="#a1e964" d="M265,-82.2666C265,-70.8274 265,-57.6997 265,-46.3034"/>
<polygon fill="#a1e964" stroke="#a1e964" points="265.0001,-82.6262 260.5,-92.6261 265,-87.6262 265,-92.6262 265,-92.6262 265,-92.6262 265,-87.6262 269.5,-92.6262 265.0001,-82.6262 265.0001,-82.6262"/>
<polygon fill="#a1e964" stroke="#a1e964" points="265.0001,-46.0192 269.5,-36.0191 265,-41.0192 265,-36.0192 265,-36.0192 265,-36.0192 265,-41.0192 260.5,-36.0192 265.0001,-46.0192 265.0001,-46.0192"/>
</g>
<!-- Group -->
<g id="node3" class="node">
<title>Group</title>
<ellipse fill="none" stroke="#000000" cx="349" cy="-111" rx="33.2948" ry="18"/>
<text text-anchor="middle" x="349" y="-107.3" font-family="Times,serif" font-size="14.00" fill="#000000">Group</text>
</g>
<!-- ApplicationRecord -->
<g id="node4" class="node">
<title>ApplicationRecord</title>
<ellipse fill="none" stroke="#000000" cx="477" cy="-111" rx="77.1866" ry="18"/>
<text text-anchor="middle" x="477" y="-107.3" font-family="Times,serif" font-size="14.00" fill="#000000">ApplicationRecord</text>
</g>
<!-- Ability -->
<g id="node5" class="node">
<title>Ability</title>
<polygon fill="none" stroke="#000000" points="627.5,-129 572.5,-129 572.5,-93 627.5,-93 627.5,-129"/>
<text text-anchor="middle" x="600" y="-107.3" font-family="Times,serif" font-size="14.00" fill="#000000">Ability</text>
</g>
<!-- User -->
<g id="node6" class="node">
<title>User</title>
<ellipse fill="none" stroke="#000000" cx="673" cy="-111" rx="27.0966" ry="18"/>
<text text-anchor="middle" x="673" y="-107.3" font-family="Times,serif" font-size="14.00" fill="#000000">User</text>
</g>
</g>
</svg>
